<svg xmlns="http://www.w3.org/2000/svg" version="1.1" xmlns:xlink="http://www.w3.org/1999/xlink" xmlns:svgjs="http://svgjs.dev/svgjs" width="100%" height="100%" viewBox="0 0 1000 600"><rect width="1000" height="600" x="0" y="0" fill="#4a171e"/><g><circle r="166.66666666666666" cx="350.3843790690104" cy="372.60656884553526" fill="#E2V144" transform="matrix(0.6803918897818294,0,0,0.6803918897818295,0,46.48153296772986)"/><path d="M296.65014822653063 447.6065671949856L296.65014822653063 447.6065671949856L298.2551128020119 436.9496024137899Q308.43058821056326 435.11994279774115 311.67261665303545 431.52482214866313Q314.882545803998 427.9618007910947 314.882545803998 418.0110204231107L314.882545803998 418.0110204231107L315.139340136075 320.94276289800246Q315.139340136075 313.55992585078855 313.40597839455523 310.9919825300185Q311.67261665303545 308.456138500758 306.5688293030049 308.456138500758L306.5688293030049 308.456138500758Q304.4823753548793 308.456138500758 301.59343911901294 308.68083354132546Q298.70450288314663 308.93762787340245 298.70450288314663 308.93762787340245L298.70450288314663 308.93762787340245L298.2551128020119 308.0067484196233L299.86007737749316 297.83127301107197Q299.86007737749316 297.83127301107197 304.4823753548793 298.0559680516393Q309.1046733322654 298.28066309220674 315.139340136075 298.4090602582452Q321.141907648375 298.53745742428373 325.53951058519374 298.53745742428373L325.53951058519374 298.53745742428373Q327.8506595738868 298.53745742428373 332.56925542580177 298.4090602582452Q337.3199505692264 298.28066309220674 342.3916386277473 298.0559680516393Q347.4954259777777 297.83127301107197 351.05844733534616 297.7028758450334Q354.6535679844243 297.60657797050453 354.6535679844243 297.60657797050453L354.6535679844243 297.60657797050453Q366.6587030090243 297.60657797050453 375.8070010892676 300.27081916580346Q384.92319987800136 302.90296106959283 391.27885959690724 308.2314434601907Q397.6345193158131 313.55992585078855 400.8765477582853 321.1674579385699Q404.1185762007575 328.8070893178608 404.1185762007575 338.7257703943351L404.1185762007575 338.7257703943351Q404.1185762007575 348.67655076231915 399.7209732639388 357.6964516765239Q395.3233703271201 366.7163525907288 387.94053327990616 373.87449459737536Q380.5255969411826 381.03263660402183 371.056305945843 385.20554450027316Q361.58701495050343 389.34635310501494 351.1868445013847 389.34635310501494L351.1868445013847 389.34635310501494L331.7667731380611 389.34635310501494L331.31738305692636 412.00845291081066Q331.31738305692636 422.4086233599294 331.9914681786285 427.48031141845024Q332.69765259184027 432.58409876848077 334.8804044144948 434.0606661779235Q337.095255528659 435.5693328788759 341.4607591739681 435.5693328788759L341.4607591739681 435.5693328788759Q344.92748265700766 435.5693328788759 349.45348275986487 435.21624067227003Q353.9473835712125 434.8952477571738 353.9473835712125 434.8952477571738L353.9473835712125 434.8952477571738L354.4288729438569 435.79402791944335L352.34241899573124 446.45099270063906Q352.34241899573124 446.45099270063906 350.1275678815671 446.3225955346006Q347.94481605891247 446.19419836856207 344.60648974191145 446.0979004940332Q341.23606413340076 445.96950332799474 337.6730427758323 445.87320545346586Q334.0779221267542 445.7448082874273 331.06058872484937 445.7448082874273L331.06058872484937 445.7448082874273Q326.43829074746327 445.7448082874273 320.56412040120176 445.96950332799474Q314.65785076343064 446.19419836856207 309.3614676643424 446.45099270063906Q304.03298527374454 446.6756877412065 300.4378646246664 447.0287799478124Q296.87484326709796 447.3497728629086 296.65014822653063 447.6065671949856ZM332.2161632191959 375.704154213424L356.74002193254995 379.17087769646355Q384.6985048374339 374.54857971907745 384.6985048374339 343.12337333115386L384.6985048374339 343.12337333115386Q384.6985048374339 325.3403658348212 374.2983343883152 317.122947208357Q363.8981639391965 308.93762787340245 341.23606413340076 308.93762787340245L341.23606413340076 308.93762787340245Q337.095255528659 308.93762787340245 336.1643760748799 309.25862078849866Q335.2334966211007 309.6117129951046 335.0088015805334 312.147557024365L335.0088015805334 312.147557024365Q334.0779221267542 327.6515148235143 333.3717377135424 344.1826499509715Q332.69765259184027 360.68168578691916 332.2161632191959 375.704154213424L332.2161632191959 375.704154213424Z " fill="#4a171e" transform="matrix(0.6803918897818294,0,0,0.6803918897818295,0,46.48153296772986)"/><path d="M600.3843629922135 446.8328057089218L600.3843629922135 446.8328057089218L601.7660874153285 437.658155539439Q610.5262202578767 436.082989697088 613.3173035925688 432.9879269893107Q616.0807524387985 429.9204987699957 616.0807524387985 421.35380734668354L616.0807524387985 421.35380734668354L616.3018283464969 337.78711423669597Q616.3018283464969 331.4311818903675 614.8095659695327 329.2204228133837Q613.3173035925688 327.0372982248622 608.9234199270635 327.0372982248622L608.9234199270635 327.0372982248622Q607.1271781770141 327.0372982248622 604.6400742154074 327.2307396440983Q602.1529702538005 327.4518155517967 602.1529702538005 327.4518155517967L602.1529702538005 327.4518155517967L601.7660874153285 326.65041538639L603.1478118384433 317.89028254384175Q603.1478118384433 317.89028254384175 607.1271781770141 318.0837239630779Q611.106544515585 318.2771653823139 616.3018283464969 318.3877033361631Q621.4694776889465 318.4982412900123 625.2554026082812 318.4982412900123L625.2554026082812 318.4982412900123Q627.2450857775666 318.4982412900123 631.3073555815245 318.3877033361631Q635.3972598739444 318.2771653823139 639.7635090509874 318.0837239630779Q644.1573927164927 317.89028254384175 647.2248209358078 317.77974458999256Q650.3198836435851 317.6968411246057 650.3198836435851 317.6968411246057L650.3198836435851 317.6968411246057Q660.6551823284843 317.6968411246057 668.5310115402391 319.99050366697634Q676.3792062635316 322.2565317208848 681.8508349790665 326.84385680562616Q687.3224636946013 331.4311818903675 690.1135470292934 337.980555655932Q692.9046303639855 344.55756390995884 692.9046303639855 353.09662084480874L692.9046303639855 353.09662084480874Q692.9046303639855 361.663312268121 689.1187054446507 369.42860352602656Q685.3327805253159 377.19389478393214 678.9768481789876 383.3563857110245Q672.5932813441968 389.5188766381168 664.441107247819 393.11136013821545Q656.2889331514414 396.67620914985184 647.335358889657 396.67620914985184L647.335358889657 396.67620914985184L630.616493369967 396.67620914985184L630.2296105314948 416.1861580042339Q630.2296105314948 425.1397322660183 630.809934789203 429.5059814430613Q631.4178935353737 433.8998651085666 633.2970387508099 435.17105157783226Q635.2038184547084 436.46987253556017 638.9621088855808 436.46987253556017L638.9621088855808 436.46987253556017Q641.946633639509 436.46987253556017 645.8430965126929 436.16589316247496Q649.7119248974145 435.889548277852 649.7119248974145 435.889548277852L649.7119248974145 435.889548277852L650.1264422243489 436.6633139547963L648.3302004742997 445.8379641242791Q648.3302004742997 445.8379641242791 646.4234207704011 445.7274261704299Q644.5442755549649 445.6168882165807 641.670288754886 445.53398475119377Q638.7686674663447 445.4234467973446 635.7012392470297 445.34054333195775Q632.6061765392524 445.23000537810856 630.0085346237964 445.23000537810856L630.0085346237964 445.23000537810856Q626.0291682852255 445.23000537810856 620.9720568966252 445.4234467973446Q615.8873110195625 445.6168882165807 611.3276204232834 445.8379641242791Q606.740295338542 446.0314055435151 603.6452326307647 446.33538491660045Q600.5778044114496 446.6117298012234 600.3843629922135 446.8328057089218ZM631.0033762084391 384.93155155337547L652.1161253936343 387.91607630730357Q676.1857648442955 383.93670996873277 676.1857648442955 356.8825457641435L676.1857648442955 356.8825457641435Q676.1857648442955 341.57303915603075 667.2321905825111 334.49861010968255Q658.2786163207268 327.4518155517967 638.7686674663447 327.4518155517967L638.7686674663447 327.4518155517967Q635.2038184547084 327.4518155517967 634.4024182893017 327.72816043641967Q633.6010181238951 328.032139809505 633.407576704659 330.2152643980264L633.407576704659 330.2152643980264Q632.6061765392524 343.56272232531614 631.9982177930818 357.7944838833994Q631.4178935353737 371.99861095302026 631.0033762084391 384.93155155337547L631.0033762084391 384.93155155337547ZM737.451425765209 447.6065713858661L737.451425765209 447.6065713858661Q724.9330024917882 447.6065713858661 715.5649109030694 442.0520392049443Q706.2244538028128 436.46987253556017 700.946266506514 426.63199464298236Q695.6680792102152 416.7664822619421 695.6680792102152 403.64010024235085L695.6680792102152 403.64010024235085Q695.6680792102152 393.4982429766876 699.1500247564647 384.3512272956672Q702.6319703027142 375.20421161464674 708.8220957182688 368.12978256829854Q714.9845866453611 361.05535352195045 722.8327813686536 356.9930837179927Q730.7086105804084 352.9031794255727 739.6621848421928 352.9031794255727L739.6621848421928 352.9031794255727Q769.2863564737756 352.9031794255727 769.2863564737756 381.75358538021123L769.2863564737756 381.75358538021123Q769.2863564737756 384.3512272956672 768.8994736353035 387.14231063035925Q768.5125907968313 389.90575947658897 768.0980734698969 391.5085598074022L768.0980734698969 391.5085598074022L765.5280660429032 393.88512581515977L710.5907029798558 393.88512581515977Q710.3972615606198 411.59883291949245 717.0571732800335 421.8512281390049Q723.7447194879094 432.1036233585172 735.876259922858 433.7893271547174Q748.0078003578067 435.47503095091747 764.5332244582605 427.9308156007103L764.5332244582605 427.9308156007103L765.7215074621392 428.31769843918244L767.9046320506608 434.0933065278026Q763.9252657120899 436.8843898624947 758.453636996555 440.0623560356589Q752.9820082810202 443.24032220882316 747.399841611636 445.4234467973446Q741.8453094307142 447.6065713858661 737.451425765209 447.6065713858661ZM711.3921031452625 386.5343518841887L711.3921031452625 386.5343518841887L747.399841611636 384.73811013413933Q750.3843663655641 384.3512272956672 751.3792079502068 383.3563857110245Q752.3740495348495 382.3615441263818 752.3740495348495 379.3770193724537L752.3740495348495 379.3770193724537Q752.3740495348495 371.41828669531196 748.1183383116557 367.245478937505Q743.8349925999996 363.04503669123585 735.876259922858 363.04503669123585L735.876259922858 363.04503669123585Q726.7292442418375 363.04503669123585 719.9587945685747 369.3180655721774Q713.1883448953117 375.5910944531189 711.3921031452625 386.5343518841887ZM783.0206972395374 447.6065713858661L783.0206972395374 447.6065713858661L783.8220974049441 439.4543972894884Q789.5977054935643 437.8792314471374 791.891368035935 435.39212748553064Q794.1573960898434 432.9050235239239 794.5719134167778 428.7045812776546Q794.95879625525 424.53177351984766 794.95879625525 418.3692825927553L794.95879625525 418.3692825927553L794.95879625525 320.6813658785338Q794.95879625525 315.7071579553203 794.0744926244565 313.4134954129496Q793.1625545052007 311.1198328705789 790.6754505435939 310.53950861287063Q788.1883465819872 309.9315498667001 783.2141386587735 310.53950861287063L783.2141386587735 310.53950861287063L782.6338144010654 310.1249912859362L783.4352145664719 303.3545416126733Q790.785988497443 302.3597000280306 798.1367624284142 300.9779756049157Q805.5151708478476 299.5962511818008 812.8659447788187 297.6065680125154L812.8659447788187 297.6065680125154L814.0542277826976 300.17657543950907Q813.2804621057533 301.5859343510863 812.4790619403466 309.24068765514266Q811.6776617749399 316.89544095919905 810.9867995633825 329.3309607672329Q810.295937351825 341.76648057526677 809.6879786056545 357.49050451031405Q809.080019859484 373.21452844536134 808.803674974861 390.70715964199564Q808.4996956017758 408.2274253270922 808.4996956017758 425.7200565237265L808.4996956017758 425.7200565237265Q808.4996956017758 431.6891060315828 810.0748614441267 434.28674794703875Q811.6776617749399 436.8843898624947 815.4635866942747 436.8843898624947L815.4635866942747 436.8843898624947L822.4274777867737 436.46987253556017L822.8143606252459 437.27127270096685L821.2391947828949 445.8379641242791Q818.0335941212684 445.6168882165807 812.7830413134318 445.4234467973446Q807.504854017133 445.23000537810856 803.5254876785622 445.23000537810856L803.5254876785622 445.23000537810856Q799.9330041784635 445.23000537810856 794.4613754629286 445.92086758966593Q788.9897467473937 446.6117298012234 783.0206972395374 447.6065713858661ZM834.9459010601944 447.6065713858661L834.9459010601944 447.6065713858661L835.747301225601 439.4543972894884Q841.7163507334574 437.8792314471374 844.3139926489132 434.7841687393601Q846.8840000759069 431.6891060315828 846.8840000759069 426.5214566891332L846.8840000759069 426.5214566891332L846.8840000759069 375.97797729159106Q846.8840000759069 370.42344511066926 845.1153928143199 367.8258031952133Q843.3191510642705 365.2557957682196 839.5332261449357 365.2557957682196L839.5332261449357 365.2557957682196Q837.9304258141226 365.2557957682196 836.2447220179224 365.6426786066918Q834.5590182217222 366.02956144516395 834.5590182217222 366.02956144516395L834.5590182217222 366.02956144516395L835.3604183871289 358.6787875141929Q840.3346263103424 357.8773873487862 845.3917376989428 356.8825457641435Q850.4764835760056 355.8877041795008 854.6492913338125 355.0034005487073Q858.8220990916194 354.09146242945144 861.4197410070753 353.51113817174326Q864.0173829225314 352.9031794255727 864.0173829225314 352.9031794255727L864.0173829225314 352.9031794255727L865.0122245071741 355.3073799217925Q864.2108243417674 357.29706309107803 863.2988862225116 364.15041622972774Q862.414582591718 371.00376936837756 861.8066238455476 380.8692817494177Q861.2262995878393 390.70715964199564 860.8117822609048 402.34127928462283Q860.4248994224326 414.00303341571237 860.4248994224326 425.7200565237265L860.4248994224326 425.7200565237265Q860.4248994224326 431.4956646123467 862.027699753246 434.17620999318956Q863.6028655955969 436.8843898624947 867.3887905149317 436.8843898624947L867.3887905149317 436.8843898624947Q869.1850322649809 436.8843898624947 871.7550396919746 436.6633139547963Q874.3526816074307 436.46987253556017 874.3526816074307 436.46987253556017L874.3526816074307 436.46987253556017L874.7395644459027 437.27127270096685L873.1643986035518 445.8379641242791Q873.1643986035518 445.8379641242791 871.4786948073518 445.7274261704299Q869.7653565226892 445.6168882165807 867.0848111418463 445.53398475119377Q864.4042657610034 445.4234467973446 861.3092030532262 445.34054333195775Q858.2417748339112 445.23000537810856 855.4506914992191 445.23000537810856L855.4506914992191 445.23000537810856Q851.2778837414122 445.23000537810856 846.4971172374347 445.8379641242791Q841.7163507334574 446.4182883819873 838.344943141057 447.0262471281578Q834.9459010601944 447.6065713858661 834.9459010601944 447.6065713858661ZM852.466166745291 329.4414987210821L852.466166745291 329.4414987210821Q847.4919588220774 329.4414987210821 845.1153928143199 326.2358980594556Q842.7111923181001 323.0579318862914 842.7111923181001 319.2720069669566L842.7111923181001 319.2720069669566Q842.7111923181001 314.5188749514415 846.1102343989626 311.036929405192Q849.481641991363 307.5549838589425 854.4558499145764 307.5549838589425L854.4558499145764 307.5549838589425Q859.2366164185539 307.5549838589425 861.7237203801607 310.6224120782575Q864.2108243417674 313.7174747860348 864.2108243417674 317.6968411246057L864.2108243417674 317.6968411246057Q864.2108243417674 322.4776076285832 860.922320214754 325.95955317483265Q857.6338160877406 329.4414987210821 852.466166745291 329.4414987210821ZM931.058651932065 447.6065713858661L931.058651932065 447.6065713858661Q918.512594170182 447.6065713858661 909.1721370699254 442.13494267033116Q899.8316799696688 436.6633139547963 894.6363961387569 426.8254360622184Q889.4687467963073 416.98755816964047 889.4687467963073 403.64010024235085L889.4687467963073 403.64010024235085Q889.4687467963073 389.32543521888067 895.5483342580128 377.8847569954896Q901.6002872312558 366.44407877209846 912.0461238700043 359.6736290988356Q922.4919605087528 352.9031794255727 935.424901109108 352.9031794255727L935.424901109108 352.9031794255727Q941.8084679438987 352.9031794255727 947.0866552401976 353.81511754482847Q952.337208048034 354.699421175622 955.5428087096606 355.6942627602647Q958.7207748828248 356.6891043449074 958.7207748828248 356.6891043449074L958.7207748828248 356.6891043449074L959.3010991405329 358.07082876802235Q959.3010991405329 358.07082876802235 958.4167955097395 361.663312268121Q957.532491878946 365.2557957682196 956.5376502943031 371.5011901606989Q955.5428087096606 377.77421904164044 955.128291382726 385.539510299546L955.128291382726 385.539510299546L946.9761172863483 386.14746904571655L946.9761172863483 379.95734363016186Q946.9761172863483 372.6065696991908 942.4993301554562 368.12978256829854Q938.0225430245639 363.6529954374064 930.6717690935928 363.6529954374064L930.6717690935928 363.6529954374064Q918.512594170182 363.6529954374064 911.9632204046175 372.3025903261055Q905.3862121505906 380.95218521480456 905.3862121505906 396.869650569088L905.3862121505906 396.869650569088Q905.3862121505906 414.1964748349484 912.654082616175 424.22779414676245Q919.921953081759 434.28674794703875 932.4403763551799 434.28674794703875L932.4403763551799 434.28674794703875Q938.0225430245639 434.28674794703875 943.1901923670137 432.60104415083856Q948.3578417094632 430.9153403546385 951.6463458364766 429.31254002382514Q954.93484996349 427.7097396930119 954.93484996349 427.7097396930119L954.93484996349 427.7097396930119L956.1231329673687 428.1242570199464L958.3062575558903 434.28674794703875Q958.3062575558903 434.28674794703875 955.5428087096606 436.27643111632415Q952.7517253749686 438.26611428560955 948.3578417094632 440.94665966645243Q943.9915925324201 443.6272050472953 939.3213639822919 445.6168882165807Q934.6511354321636 447.6065713858661 931.058651932065 447.6065713858661ZM983.7852559181285 424.53177351984766L984.5866560835351 376.19905319928944Q984.5866560835351 371.00376936837756 982.7904143334858 368.2403205221477Q980.9941725834365 365.44923718745576 977.2082476641018 365.44923718745576L977.2082476641018 365.44923718745576Q975.6330818217508 365.44923718745576 973.9473780255506 365.8361200259279Q972.2340397408882 366.2506373528623 972.2340397408882 366.2506373528623L972.2340397408882 366.2506373528623L973.0354399062949 358.8722289334289Q977.6227649910363 358.07082876802235 982.5969729142498 357.07598718337954Q987.5711808374633 356.08114559873684 991.8545265491193 355.08630401409414Q996.1102377723132 354.09146242945144 998.8184176416185 353.51113817174326Q1001.4989630224612 352.9031794255727 1001.4989630224612 352.9031794255727L1001.4989630224612 352.9031794255727L1002.6872460263401 355.3073799217925Q1001.6924044416972 357.8773873487862 1000.8081008109039 364.15041622972774Q999.896162691648 370.42344511066926 999.0947625262413 378.76906062628314Q998.320996849297 387.14231063035925 997.9064795223626 396.37222977676663Q997.5195966838903 405.62978341163625 997.5195966838903 414.3899162541845L997.5195966838903 414.3899162541845Q997.5195966838903 433.8998651085666 1013.4370620381737 433.8998651085666L1013.4370620381737 433.8998651085666Q1020.4009531306726 433.8998651085666 1026.452906103916 430.0034022353826Q1032.5324935656213 426.134573850661 1037.5067014888348 422.54209035056226L1037.5067014888348 422.54209035056226L1037.5067014888348 376.3924946185256Q1037.5067014888348 370.42344511066926 1035.3235769003134 368.01924461444935Q1033.1404523117917 365.6426786066918 1027.5582856424078 365.6426786066918L1027.5582856424078 365.6426786066918Q1026.756885477001 365.6426786066918 1024.7672023077157 365.753216560541Q1022.7775191384302 365.8361200259279 1022.7775191384302 365.8361200259279L1022.7775191384302 365.8361200259279L1023.578919303837 358.6787875141929Q1028.9400100655225 357.8773873487862 1034.3287353156707 356.8825457641435Q1039.6898260773562 355.8877041795008 1044.1666132082485 355.0034005487073Q1048.6434003391407 354.09146242945144 1051.4344836738328 353.51113817174326Q1054.2255670085249 352.9031794255727 1054.2255670085249 352.9031794255727L1054.2255670085249 352.9031794255727L1055.4138500124036 355.3073799217925Q1054.2255670085249 358.29190467572073 1053.2307254238822 368.6272033606199Q1052.2358838392395 378.96250204551916 1051.6279250930688 393.69168439592374Q1051.0476008353605 408.42086674632833 1051.0476008353605 424.33833210061164L1051.0476008353605 424.33833210061164Q1051.0476008353605 428.7045812776546 1053.2307254238822 431.1087817738745Q1055.4138500124036 433.4853477816321 1059.1997749317384 433.4853477816321L1059.1997749317384 433.4853477816321Q1062.3777411049025 433.4853477816321 1065.0582864857454 432.18652682390416Q1067.7388318665883 430.9153403546385 1069.4521701512508 429.6994228622973Q1071.1378739474508 428.5111398584186 1071.1378739474508 428.5111398584186L1071.1378739474508 428.5111398584186L1073.9289572821428 431.6891060315828Q1073.9289572821428 431.6891060315828 1072.2156189974805 434.0933065278026Q1070.5299152012803 436.46987253556017 1067.8493698204375 439.6478387087244Q1065.1688244395946 442.8534393703509 1062.1842996856665 445.23000537810856Q1059.1997749317384 447.6065713858661 1056.6021330162823 447.6065713858661L1056.6021330162823 447.6065713858661Q1040.4912262427629 447.6065713858661 1038.8884259119498 431.4956646123467L1038.8884259119498 431.4956646123467L1037.893584327307 431.1087817738745Q1028.3596858078145 438.4595557048457 1020.7049325037578 443.046880789587Q1013.0225447112393 447.6065713858661 1010.2590958650096 447.6065713858661L1010.2590958650096 447.6065713858661Q997.5195966838903 447.6065713858661 990.6386090567783 441.6375218780098Q983.7852559181285 435.6684723701536 983.7852559181285 424.53177351984766L983.7852559181285 424.53177351984766ZM1079.6769308823007 447.6065713858661L1079.6769308823007 447.6065713858661L1080.4783310477073 439.4543972894884Q1086.2539391363275 437.8792314471374 1088.5476016786984 435.39212748553064Q1090.841264221069 432.9050235239239 1091.228147059541 428.7045812776546Q1091.6150298980133 424.53177351984766 1091.6150298980133 418.3692825927553L1091.6150298980133 418.3692825927553L1091.6150298980133 320.6813658785338Q1091.6150298980133 315.7071579553203 1090.7307262672198 313.4134954129496Q1089.8464226364263 311.1198328705789 1087.3593186748194 310.53950861287063Q1084.8722147132125 309.9315498667001 1079.8980067899993 310.53950861287063L1079.8980067899993 310.53950861287063L1079.2900480438286 310.1249912859362L1080.0914482092353 303.3545416126733Q1087.4422221402065 302.3597000280306 1094.8206305596398 300.9779756049157Q1102.171404490611 299.5962511818008 1109.5221784215819 297.6065680125154L1109.5221784215819 297.6065680125154L1110.7380959139232 300.17657543950907Q1109.9366957485163 301.5859343510863 1109.1352955831098 309.24068765514266Q1108.3338954177032 316.89544095919905 1107.6430332061457 329.3309607672329Q1106.9521709945884 341.76648057526677 1106.3442122484178 357.49050451031405Q1105.7638879907095 373.21452844536134 1105.4599086176243 390.70715964199564Q1105.155929244539 408.2274253270922 1105.155929244539 425.7200565237265L1105.155929244539 425.7200565237265Q1105.155929244539 431.6891060315828 1106.7587295753524 434.28674794703875Q1108.3338954177032 436.8843898624947 1112.1198203370382 436.8843898624947L1112.1198203370382 436.8843898624947L1119.0837114295368 436.46987253556017L1119.470594268009 437.27127270096685L1117.895428425658 445.8379641242791Q1114.717462252494 445.6168882165807 1109.4392749561953 445.4234467973446Q1104.1610876598963 445.23000537810856 1100.1817213213255 445.23000537810856L1100.1817213213255 445.23000537810856Q1096.5892378212268 445.23000537810856 1091.1176091056918 445.92086758966593Q1085.6459803901569 446.6117298012234 1079.6769308823007 447.6065713858661ZM1196.8747964509043 447.6065713858661L1196.8747964509043 447.6065713858661Q1188.9160637737627 447.6065713858661 1184.4392766428705 443.54430158190837Q1179.9624895119782 439.4543972894884 1179.1610893465715 431.4956646123467L1179.1610893465715 431.4956646123467L1178.3873236696272 431.30222319311065Q1173.60655716565 436.082989697088 1169.3232114539937 439.5649352433376Q1165.0398657423375 443.046880789587 1161.7513616153242 444.92602600502323Q1158.4904919767732 446.8328057089218 1156.5008088074878 446.8328057089218L1156.5008088074878 446.8328057089218Q1149.1224003880543 446.8328057089218 1143.3467922994341 443.6272050472953Q1137.5988186992763 440.4492388741311 1134.310314572263 434.8947066932093Q1131.0218104452492 429.31254002382514 1131.0218104452492 422.1552075120901L1131.0218104452492 422.1552075120901Q1131.0218104452492 416.3795994234699 1133.8957972453284 412.01335024642697Q1136.7974185338694 407.61946658092165 1141.578185037847 406.2377421578068L1141.578185037847 406.2377421578068L1179.3821652542701 395.8748089844453L1179.5756066735062 387.14231063035925Q1179.5756066735062 377.19389478393214 1174.9882815887647 371.6117281145481Q1170.4285909924856 366.02956144516395 1162.0553409884096 366.02956144516395L1162.0553409884096 366.02956144516395Q1156.5008088074878 366.02956144516395 1150.310683391933 368.6272033606199Q1144.1481924648408 371.22484527607594 1138.1791429569844 375.97797729159106L1138.1791429569844 375.97797729159106L1137.184301372342 375.39765303388276L1134.8077353645842 366.8309616105706Q1139.9753847070338 363.8464368566425 1146.331317053362 360.5579327296291Q1152.714883888153 357.29706309107803 1158.4904919767732 355.08630401409414Q1164.238465576931 352.9031794255727 1167.222990330859 352.9031794255727L1167.222990330859 352.9031794255727Q1175.9831231734074 352.9031794255727 1182.1456141004996 355.99824213335Q1188.3357395160542 359.06567035266505 1191.5966091546054 364.7583749758983Q1194.885113281619 370.42344511066926 1194.885113281619 378.575619207047L1194.885113281619 378.575619207047Q1194.885113281619 381.17326112250294 1194.3876924892975 386.92123472266087Q1193.890271696976 392.69684281128104 1193.0888715315696 399.77127185762913Q1192.3151058546252 406.8180664155151 1191.817685062304 413.3950746695418Q1191.3202642699825 419.9720829235687 1191.3202642699825 424.33833210061164L1191.3202642699825 424.33833210061164Q1191.3202642699825 428.7045812776546 1193.503388858504 431.1087817738745Q1195.6865134470256 433.4853477816321 1199.4724383663602 433.4853477816321L1199.4724383663602 433.4853477816321Q1202.8438459587605 433.4853477816321 1206.2428880396233 431.799643985432Q1209.6142956320234 430.1139401892318 1211.4105373820728 428.5111398584186L1211.4105373820728 428.5111398584186L1214.2016207167649 431.6891060315828Q1212.5988203859515 434.28674794703875 1209.9182750051086 437.57525207405206Q1207.2377296242657 440.8637562010655 1203.9492254972524 443.6272050472953Q1200.6607213702391 446.4182883819873 1196.8747964509043 447.6065713858661ZM1159.872216399888 433.29190636239605L1159.872216399888 433.29190636239605Q1163.6581413192228 433.29190636239605 1168.715252707823 430.61136098155316Q1173.799998584886 427.9308156007103 1177.9728063426928 423.7303733544411L1177.9728063426928 423.7303733544411L1178.9676479273355 403.4466588231147L1151.9134837227462 411.59883291949245Q1146.137875634126 413.3950746695418 1146.137875634126 419.9720829235687L1146.137875634126 419.9720829235687Q1146.137875634126 425.5266151044905 1150.0343385073102 429.4230779776743Q1153.9031668920318 433.29190636239605 1159.872216399888 433.29190636239605ZM1249.6014004369677 447.6065713858661L1249.6014004369677 447.6065713858661Q1242.4440679252327 447.6065713858661 1237.0829771635472 446.52882633583647Q1231.694251913399 445.4234467973446 1228.8202651133201 444.4286052127019Q1225.9186438247789 443.4337636280592 1225.9186438247789 443.4337636280592L1225.9186438247789 443.4337636280592L1225.3383195670708 442.0520392049443Q1225.7252024055429 439.8689146164228 1226.2226231978643 434.7841687393601Q1226.7200439901856 429.6994228622973 1227.2174647825068 424.1448906813755Q1227.7148855748283 418.56272401199146 1227.7148855748283 415.3847578388272L1227.7148855748283 415.3847578388272L1234.6787766673274 414.3899162541845Q1234.6787766673274 427.5162982737759 1239.0726603328326 432.9050235239239Q1243.4389095098754 438.26611428560955 1253.995284102473 438.26611428560955L1253.995284102473 438.26611428560955Q1261.5394994526805 438.26611428560955 1266.7071487951298 434.8947066932093Q1271.902432626042 431.4956646123467 1271.902432626042 426.5214566891332L1271.902432626042 426.5214566891332Q1271.902432626042 423.1500490967328 1269.9127494567565 420.35896576204084Q1267.923066287471 417.56788242734876 1262.9488583642576 414.1964748349484Q1257.974650441044 410.7974327540859 1248.8000002715612 406.04430073857066L1248.8000002715612 406.04430073857066Q1237.4698600020192 400.2686926499506 1232.3022106595697 394.2996431420943Q1227.13456131712 388.33059363423797 1227.13456131712 381.17326112250294L1227.13456131712 381.17326112250294Q1227.13456131712 372.99345253766296 1231.887693332635 366.6375201913345Q1236.6684598366126 360.28158784500613 1245.0417098406888 356.5785663910583Q1253.3873253563027 352.9031794255727 1263.722624041202 352.9031794255727L1263.722624041202 352.9031794255727Q1271.902432626042 352.9031794255727 1277.760944180049 354.50597975638595Q1283.619455734056 356.08114559873684 1283.619455734056 356.08114559873684L1283.619455734056 356.08114559873684L1284.0339730609905 357.07598718337954Q1284.0339730609905 357.07598718337954 1283.343110849433 360.47502926424215Q1282.6246141494132 363.8464368566425 1281.7403105186197 369.3180655721774Q1280.8560068878264 374.7896942877122 1280.2480481416558 381.3667025417391L1280.2480481416558 381.3667025417391L1272.8972742106846 381.94702679944737Q1272.8972742106846 381.94702679944737 1273.0907156299206 379.76390221092583Q1273.2841570491569 377.5807776224043 1273.2841570491569 376.19905319928944L1273.2841570491569 376.19905319928944Q1273.2841570491569 369.01408619909216 1269.415328664435 365.753216560541Q1265.5188657912513 362.46471243352755 1256.9798088564012 362.46471243352755L1256.9798088564012 362.46471243352755Q1250.2093591831385 362.46471243352755 1245.5391306330102 365.6426786066918Q1240.8412675944196 368.820644779856 1240.8412675944196 373.40796986459736L1240.8412675944196 373.40796986459736Q1240.8412675944196 378.18873636857484 1244.9311718868396 382.3615441263818Q1249.0210761792596 386.5343518841887 1258.1680918602801 391.3151183881662L1258.1680918602801 391.3151183881662Q1268.9179078721138 396.869650569088 1274.9698608453568 401.34643769998013Q1281.0494483070624 405.8232248308723 1283.536552268669 410.02366707714157Q1286.0236562302757 414.1964748349484 1286.0236562302757 419.170682758162L1286.0236562302757 419.170682758162Q1286.0236562302757 426.7148981083692 1280.9389103532133 433.29190636239605Q1275.8817989646127 439.8689146164228 1267.6190869143857 443.7377430011445Q1259.3563748641589 447.6065713858661 1249.6014004369677 447.6065713858661Z " fill="#E2V144" transform="matrix(0.6803918897818294,0,0,0.6803918897818295,0,46.48153296772986)"/></g></svg>